<svg data-name="icon - passport vancine" xmlns="http://www.w3.org/2000/svg" width="32" height="32" viewBox="0 0 32 32">
    <defs>
        <linearGradient id="fi2zkrb1mb" x1=".322" y1="1.381" x2=".589" y2=".022" gradientUnits="objectBoundingBox">
            <stop offset="0" stop-color="#0060e0"/>
            <stop offset="1" stop-color="#00b2fd"/>
        </linearGradient>
        <clipPath id="rrp7zvsoja">
            <path transform="translate(268 22)" style="fill:#b6b6cb" d="M0 0h32v32H0z"/>
        </clipPath>
    </defs>
    <g data-name="icon - passport vancine" transform="translate(-268 -22)" style="clip-path:url(#rrp7zvsoja)">
        <g data-name="Group 22788">
            <circle data-name="Ellipse 607" cx="9" cy="9" r="9" transform="translate(275 29)" style="fill:#fff"/>
            <path data-name="icon - passport vancine" d="M15.038 280.6a.5.5 0 0 0-.207.056A47.334 47.334 0 0 1 1.49 284.6a.5.5 0 0 0-.432.5v10.5a13.912 13.912 0 0 0 6.991 12.364 20.607 20.607 0 0 0 6.934 2.632.486.486 0 0 0 .148 0 20.607 20.607 0 0 0 6.934-2.632 13.912 13.912 0 0 0 6.991-12.364v-10.5a.5.5 0 0 0-.432-.5 47.336 47.336 0 0 1-13.341-3.949.5.5 0 0 0-.244-.056zm.019 6a9 9 0 1 1-9 9 9 9 0 0 1 9-9zm-2 4.5v2.5h-2.5a.5.5 0 0 0-.5.5v3a.5.5 0 0 0 .5.5h2.5v2.5a.5.5 0 0 0 .5.5h3a.5.5 0 0 0 .5-.5v-2.5h2.5a.5.5 0 0 0 .5-.5v-3a.5.5 0 0 0-.5-.5h-2.5v-2.5a.5.5 0 0 0-.5-.5h-3.024a.5.5 0 0 0-.477.5z" transform="translate(268.942 -257.595)" style="fill:url(#fi2zkrb1mb)"/>
        </g>
    </g>
</svg>
